<?xml version="1.0" encoding="UTF-8"?>
<svg id="Layer_1" data-name="Layer 1" xmlns="http://www.w3.org/2000/svg" viewBox="0 0 674.63 685.94">
  <defs>
    <style>
      .cls-1 {
        fill: azure;
      }
    </style>
  </defs>
  <path class="cls-1" d="M384.61,683.17l-28.07,2.75-36.18.02c-50.06-2.73-98.78-16.88-142.67-41.11-23-12.69-44-28.04-63.45-45.56-46.33-41.73-80.08-94.17-98.82-153.71-9.29-29.53-14.15-60.08-15.42-90.88l.06-21.33c1.57-48.71,13.11-96.3,34.67-140.14,15.73-32,38.96-66.42,64.36-91.14l12.97-12.63c16.54-15.02,34.13-28.41,53.23-40.22C208.73,22.36,262.53,3.78,313.43.99l10.6-.58c9.67-.53,19.32-.57,28.99.01l9.11.55c25.89,1.56,51.17,6.81,75.96,14.94,31.38,10.29,60.87,25.15,87.94,43.99,13.85,9.64,26.56,20.23,38.98,31.54l16.53,16.53c35.64,37.99,62.06,83.42,77.75,133.23,8.74,27.77,13.76,56.51,15.23,85.56l.1,31.88-.31,5.67c-1.67,30.28-7.63,60.2-17.38,89.1-14.65,43.41-37.96,83.41-68.24,117.62l-22.95,23.68c-16.52,15.25-33.85,29.06-52.95,40.99-39.15,24.45-82.21,40.67-128.2,47.47ZM357.46,681.44c43.84-2.71,84.9-14.12,124.11-33.51,29.16-14.41,55.52-33.05,79.42-54.97l16.1-15.95,7.48-8.11c32.15-36.58,56.65-79.25,70.87-126.01,8.36-27.48,13.24-55.69,14.6-84.26v-29.78c-.9-23.26-4.4-46.07-10.18-68.75-11.73-46-32.99-88.87-62.18-126.29-10.48-13.43-22.02-25.93-34.38-37.64-25.89-24.54-55.11-44.72-87.29-60.23-22.33-10.76-45.7-18.63-69.88-24.06-14.38-3.23-28.4-5.57-43.02-6.43l-9.57-.56c-10.67-.63-21.32-.67-31.98,0l-9.13.58c-48.66,3.1-99.73,20.46-141.61,45.75-16.17,9.76-31.6,20.27-45.62,32.76l-10.91,9.72c-7.01,6.24-13.29,12.82-19.74,19.73-12.6,13.5-23.47,27.9-33.69,43.3C25.59,209.9,6.24,271.72,4.54,335.35l-.06,16.68c.52,11.52,1.29,22.59,2.76,34.25,7.1,56.19,28.35,109.53,61.47,155.53,20.51,28.48,45.55,53.75,73.63,74.75,51.54,38.53,113.03,60.94,177.1,64.87l15.7.54,10.12-.05,12.19-.48Z"/>
  <path class="cls-1" d="M263.96,646.31c-12.56-3.23-24.07-6.8-35.75-11.51l-26.85-12.15c-9.94-4.5-18.74-10.1-27.93-16.12-13.45-8.8-25.89-18.41-37.88-29.05l-9.01-8.52-11.02-11.13c-33.34-35.74-58.41-78.99-72.18-126.1-6.35-21.73-10.63-43.75-11.78-66.15l-.57-11.11v-21.02s.59-12.08.59-12.08c1.22-24.93,6.18-49.17,13.84-73.04,25.3-78.87,80.71-144.95,153.93-183.46,39.73-20.89,83.01-32.2,127.57-33.91l20.82-.04c26.5.94,52.68,5.22,78.14,13.22,44.19,13.89,84.35,37.79,118.12,69.27l15.28,15.28,15.15,17.41c8.41,10.61,16.22,21.54,23.31,33.11,25.84,42.22,41.38,89.37,45.2,138.64l.62,10.1v30.98s-.55,9.64-.55,9.64c-6.06,74.81-37.42,142.49-89.88,195.83l-6.48,6.31c-51.54,50.21-124.73,82.11-197.09,84.74-28.87,1.05-57.4-1.91-85.61-9.16ZM352.27,628.93c12.11-.58,23.33-1.79,35.04-4.19,13.61-2.79,26.67-6.14,39.79-10.81,32.72-11.63,62.93-29.04,89.29-51.53,7.8-6.65,15.33-12.93,21.92-20.67l18.43-21.67c36.85-47.42,57.41-103.93,60.29-163.93v-25.37c-1.27-24.26-5.07-48.31-12.21-71.59-12.95-42.23-35.15-80.59-65.24-112.71l-15.07-15.06c-45.7-42.07-103.12-68.56-165.26-73.48l-8.71-.5c-8.84-.51-17.66-.56-26.5.01l-8.61.56c-34.69,2.87-68.23,12.26-99.32,27.93l-18.21,9.94c-16.1,9.57-30.81,20.69-44.85,33.05l-7.97,7.56-8.79,8.83c-43.88,46.26-72.72,108.8-77.68,172.53l-.59,7.58-.55,10.12c-.82,31.92,3.81,63.89,13.49,94.58,14.69,46.56,41.2,88.82,76.5,122.3,45.09,42.77,102.65,69.39,164.45,75.62l12.14.9h28.24Z"/>
  <g>
    <path class="cls-1" d="M219.31,163.97l.19,27.01.37,7.6,7.39.29c1.11.04,2.82,1.92,3.61,2.68l7.9,7.64,7.74,7.39c1.12,1.07,3.52,3.52,3.6,5.17l.47,10.17.07,12.3-.39,8.47c-.14,3.07.73,5.61,2.86,7.67l9.16,8.86,14.45,14,3.63,3.4,6.56,7.1c-7.57,12.07-11.3,25.72-10.51,39.97.32,5.7,1.65,11.16,3.36,16.47,2.5,7.77,6.16,14.47,11.37,20.7,7.52,9,16.85,16.19,28.11,19.84,1.61.52,3.05.96,3.02,3.07l-.12,8.37c-.82,4.71-2.74,8.92-4.68,13.25-4.24,9.45-7.93,18.94-13.14,27.76-2.59,4.37-6.99,6.82-11.32,8.72l-8.08,3.53-26.38,10.92-.87-8.26,11.62-5.89c2.81-1.42,5.05-3.47,7.45-5.57l6.47-3.99,10.44-5.59c1.14-.61,2.67-1.53,3.16-2.82l9.64-25.83,3.97-13.21c-.65-.85-2.37-1.47-3.28-1.27l-5.11,16.57-6.41,15.5c-1.51,3.64-3.51,6.16-7.09,8.06l-17.51,9.3c-.9,2.21-1.96,5.22-4.63,5.38s-5.7-.97-6.15-3.99c-.29-1.97.14-3.89,1.43-5.3,3.42-3.73,6.05.73,10.29-1.52l6.84-3.62,11.23-6.38c5.21-12.09,9.66-23.95,12.29-36.95l-5.44-3.1-6.73,14.45c1.27,2.31,1.27,4.67.06,6.6s-3.95,2.22-6.3,2.44c-2.16,2.32-3.66,5.75-6.33,7.71-4.24,3.12-9.52,4.85-14.3,7.2-.52,1.79-1.3,4.04-2.54,4.69-2.2,1.16-3.95.85-6.79.09v16.18s.08,11.6.08,11.6l-.39,9.43-10.81,3.99-18.08,6.96c-1.59.61-2.74,2.81-3.08,4.74l10.56-3.36,47.63-18.09,13.9,11.71.24,22.79.29,13.24c.03,1.36.42,2.73,1.49,3.59v-40.16s-13.8-11.88-13.8-11.88l16.29-7.24,4.73,4.49,3.85,4.1-.1,13.89c-2.77,3.12-3.88,4.83-3.89,9.24l-.07,44.41c0,1.53,1.17,2.91,2.01,3.95l9.04,11.16c.64,1.85.63,4.77.96,6.94l2.21,14.65c.58,3.85-.17,6.95-1.61,10.44l-9.62,23.34c-1.69.09-2.99.02-4.66-.35l4.2-11.98,4.76-12.32c.75-1.94.97-4.2.14-6.21l-6.75-16.3-18.78-46.07c-2.85-7-5.76-13.25-10.96-18.66-3.85-4-8.2-6.21-14.03-6.15-4.21.05-8.36.49-12.54,1.49l-15.39,3.68c-8.48,2.03-16.76,3.21-25.49,3.58-10.81.45-21.17-3.33-27.7-11.9-3.22-4.22-5.1-8.98-4.32-14.28l1.55-10.51c.5-3.41.44-7.62-2.53-9.98l-6.4-3.57c-6.33-3.53-6.91-14.33-1.66-20.48-7.61-5.18-11.91-14.75-6.81-21.75,2.33-3.2,3.76-7.14,3.32-10.98-6.05-2.48-11.75-4.87-16.82-8.93-4.37-3.51-7.41-9.4-7.33-15.05.04-2.95,2.38-6.06,4.15-8.22l12.19-14.86,12.75-18.68,4.28-6.96c-2.96-1.03-6.05-1.99-7.99-4.17l-2.85-3.19-2.34-3.23s.46-.18.8-.31c3.64,2.31,9.52,5.69,11.93,4.94,1.77-.55-2.24-13.56-4.31-19.01-1.15-3.03-2.22-6.65-1.4-10.09l7.05-29.43c2.69-11.25,7.37-21.4,12.24-31.96l-8.87-29.49c-.56-1.86-.39-3.7.97-5.16l5.54-5.96,11.06-11.39,3.44-3.71,1.37-12.4c.29-2.66.77-4.97,2.99-6.67l10.73-8.21,13.3-9.28c.95-.66,3.41-1.27,4.58-1.26l17.62.13c2.85.02,6.28.64,8.85.03l12.15-9.6,14.83-11.74c2.24-1.77,5.76-4.55,8.66-4.6l23.76-.45,20.98-.56,45.53-.23c4.21,1.68,7.68,3.87,11.12,6.59l25.13,19.93,23.96-.18c2.77-.02,5.11-.14,7.58,1.59l11.75,8.2,11.84,8.74c.97.72,2.44,2.68,2.55,3.82l.91,9.32.44,5.78,6.63,6.97,7.31,7.69,5.14,5.45c1,1.06,2.78,2.89,2.79,4.49l-8.78,29.8c-.39,1.31-.18,2.92.44,4.19,4.69,9.64,8.71,19.21,11.27,29.68l7.09,28.98c.49,1.99.57,4.91-.06,6.8l-4.04,12.04c-1.22,3.63-1.94,7.11-1.93,11.45,4.5-.61,8.21-2.58,12.05-4.86l.83-.49c.9-.54-3.46,8.98-12.88,10.92,6.06,10.42,12.96,20.15,20.11,29.93l8.68,10.45c1.82,2.19,4.2,5.12,4.37,8.13.32,5.7-2.55,11.65-6.97,15.15-5.27,4.18-11.04,6.64-17.17,9.42-.26,7.49,4.62,11.05,5.38,14.61,1.6,7.46-2.41,13.32-8.53,17.98l2.19,3.44c1.45,4.59,1.86,10.04-.68,14.38-2.83,4.81-13.42,3.41-12.34,14.7,1.41,6.37,2.24,12.68,1.34,19.23-4.14,10.78-13.97,17.88-25.57,18.94-7.29.66-14.49-.32-21.76-1.71l-18.53-3.53-13.47-2.92-10.48.05c-3.33.02-6.32,2.56-8.64,4.68-4.98,4.54-7.89,10-10.4,16.17l-5.35,13.1-10.42,25.6-10.96,26.58c-.62,1.49-1.11,3.52-.6,5.01l4.4,12.7,4.69,13.04c-1.64.48-3.18.58-4.59.38l-7.37-18.14-2.09-5.06c-1.18-2.85-2.28-5.98-1.73-9.21l1.91-11.13c.62-3.6-.4-8.6,1.64-11.84l10.51-13.23v-50.27c-.83-1.76-2.29-3.5-3.64-5.08-.44-4.83-.52-9.9.16-14.73l8.13-7.78,15.34,6.64.85.36c.23.1-.24.77-.44.93l-12.92,10.54-.1,41.73c.8-1.27,1.55-3.19,1.56-4.67l.16-31.43.34-4.69,13.65-11.55,48.51,18.55,9.71,2.87c.15-1.6-.93-3.44-2.46-4.09l-9.53-4.05-19.88-7.36-.3-7.24.05-19.92c0-3.43.32-6.8-.58-10.11-1.92.59-3.83.9-5.39.25-2.87-1.19-2.13-4.56-5.39-6l-5.88-2.58c-7.75-3.41-8.16-5.69-12.89-11.73-2.79.6-4.95-.57-6.35-2.47s-.52-4.73.05-6.8l-6.44-13.88-5.56,2.82,2.55,11.08,9.29,25.26c2.03,2.28,5.2,4.12,7.96,5.51l13.29,6.68c2.19-1.21,4.79-1.89,6.87-.17,1.75,1.45,2.84,3.74,1.98,6.48-.61,1.94-3.1,3.81-5.52,3.5-3.33-.42-4.45-3.23-5.17-5.8l-17.72-9.34c-3.36-1.77-5.54-4.66-7-8.09l-5.36-12.58-6.08-19.53c-.66.03-1.92.35-2.42.7-2.08,1.45,6.92,25.08,9.68,32.04l3.03,7.63c.32.8,1.53,2.1,2.31,2.53l15.24,8.29,6.28,4.76c4.56,3.46,9.83,5.32,15.02,7.98l-.19,8.86-20.68-8.49-18.62-8.42c-3.87-1.75-6.69-5.54-8.63-9.37-5.6-11.01-10.42-22.01-14.9-33.53-1.9-4.87-2.01-9.81-.8-15.07,25.34-7.99,43.83-31.14,45.29-57.9.79-14.42-2.68-28.12-10.61-40.14l6.46-6.65,16.61-16.33,13.59-13.57-.03-33.38c0-2.56,1.08-4.5,2.82-6.17l10.93-10.57,8.97-8.66,8.01-.22c.45-2.01.71-4.52.71-6.86l.06-28.08-4.86-4.6-24.76-19.7-26.36-20.65-13.54-10.47c-2.41-1.86-4.9-2.55-8.01-2.57l-29.78-.18-9.5-.27c-.58-.02-1.9.72-2.34.96l-24.13.29-18.58.43c-2.78,1.3-5.69,3.35-8.21,5.34l-48.03,37.84-13.56,10.9c-.96.77-3,2.33-3.33,3.52ZM470.73,160.19l-9.35-7.14-20.35-16.14c1.72-.77,3.07-1.09,4.52-1.13l23.39,18.73c1.11-2.46-.06-4.88-1.75-6.74l-4.05-4.45-13.93-10.09-21.05.19,11.53,9.43,21.07,16.92-.37,4.57-.18,33.63c1.84.38,3.89.27,5.93-.48l2.43-16.5.98-6.65c.69-4.69,1.57-9.25,1.18-14.14ZM203.71,172.98l3.07,20.74c.17,1.15.12,3.67,1.09,4.26,1.57.94,3.58.83,5.46.65l-.21-30.37-.22-7.71,10.53-8.72,22.13-17.62-21.75-.03-10.67,7.37-5.57,5.43c-2.34,2.28-4.15,4.97-3.47,8.55l23.63-18.9c1.8-.03,3.32.19,5.03,1.11l-17.46,13.51-12.56,9.93c-.09,4.1.35,7.64.96,11.81ZM481.61,205.57c-.64,2.5-.55,5.1,2.15,6.39l6.9-23c.24-.81-.62-2.24-1.22-2.86l-11.52-12c-.74,1.37-1.21,3.65-1.16,5.42l9.23,8.73-3.11,12.44-1.26,4.88ZM190.72,201.22l-3.22-12.02,9.32-9.22-.89-5.17-13.33,13.36,7.35,24.36c1.52-.99,2.74-2.97,2.45-4.22l-1.68-7.1ZM480.71,192.42c.83-3.08-1.69-6.05-4.72-8.03l-2.28,15.43,3.75,4.7,3.25-12.09ZM199.87,199.92l-2.4-15.3-5.35,5.76,3.96,14.29,3.79-4.76ZM474.26,324c.18.83,1.48,2.19,1.86,2.83l5.03,8.5-7.79-3.56,1.68,10.62c.58,3.69.44,7.89.05,11.78-.24,2.42-3.22,4.38-4.67,6.11l-10.05,12.04c-1.53,1.83-3.55,4.23-3.84,6.54l-.61,4.87-.37,17.4c-.06,3.02-3.12,5.79-5,7.71l-3.79,3.88c-2,2.04-4.48,4.05-5.95,6.65l-.17,33.36-.26,9.69,12.73,5.55c1.03.45,2.85.71,4,.7l10.46-10.66,3.52-3.98c2.3-2.61,5.28-4,8.79-4.2,5.42-.31,10.14-2.45,13.31-6.73l1.84-2.5c-6.27-2.17-11.04-5.55-16.06-9.66l-5.17-4.24-6.15-.1,2.36-5.38c.38-.88,2.68-.84,3.74-1.04,3.94-.75,7.28-2.81,10.52-4.94l7.88-5.18c3.55-2.33,6.81-4.99,10.85-6.64,2.11-.86,4.91.55,7.58.78-3.49-5.43-6.5-11-4.96-17.28.62-2.53,3.8-4.29,5.88-5.39l4.66-2.45c4.42-2.32,8.58-4.76,11.57-8.94,1.19-1.66,2.48-5.39,1.15-7.05l-6.05-7.51-11.85-15.63-7.18-10.34-5.31-8.17c-2.22-3.41-3.17-7.11-2.8-11.31.62-6.93,2.54-13.46,5.07-19.92,1.36-3.48,1.87-6.89,1.04-10.53l-4.65-20.43c-2.47-10.88-6.06-21.08-10.77-31.21-4.02-8.66-9.48-16.21-15.44-23.43l-13.76.27-7.81.45c-3.05,1.28-5.55,3.96-7.72,6.24l10.52,14.64,4.12,6.86c3.57-.23,5.76,2.1,6.63,4.69,1.03,3.06-.55,5.15-2.88,7.43-.91,2.05-.89,5.51-.92,7.97l-.06,5.53.89,13.36,27.51,7.42c1.73.47,4.78,2.09,5.05,3.76l1.41,8.63c-2.41,2.12-6.39,3.23-9.52,1.64l-27.65-14.01c-1.98.38-3.92,1.17-5.72,1.98l-27.94,12.52c-.43-.61.03-2.13.74-2.71,4.65-3.81,9.44-6.93,14.71-9.81l16.24-8.87-.3-9.12-.1-11.77c-.02-2.16.81-5.05-.14-6.98-.48-.98-2.85-2.5-2.93-3.59l-.04-7.36c-2.79-5.16-5.86-9.7-9.38-14.19l-3.99-5.09-7.21,6.71c-.59.55-1.36,2.14-1.39,2.95l-.27,7.97v8.12s.24,19.51.24,19.51c.01.95-.73,2.42-1.39,3.02l-8.38,7.68-7.77,7.22-7.18,6.9,9.47,10.88c3.66,4.2,6.85,8.59,8.3,14.12,1.17,4.46,7.68,3.97,12.7.93l6.89-4.18c4.63-2.81,8.82-5.94,13.86-8.12,2.97-1.28,6.45-1.41,9.69-1.74l12.17-1.24.22,10.27,13.37-6.12c-.67,3.7-3.07,6.58-5.16,9.59-3.58,5.12-8.88,2.5-9.04,3.81l-.25,2c-.36,2.92-1.49,6.11-2.54,9.21ZM190.14,311.72c-3.83-3.55-6.29-7.26-8.06-12.25,2.92.93,4.86,2.52,7.48,3.49l6.11,2.27.23-9.9,7.4.76c5.05.52,10.41.38,15.12,2.51s9.11,5.48,13.67,8.26l7.2,4.39c3.15,1.92,10.21,2.76,11.53-1.05,1.47-4.23,3.21-8.48,6.1-11.81l11.81-13.61-6.7-6.36-8.23-7.74-9.55-9,.11-34.97c0-2.73-.68-4.22-2.62-6.04l-6.24-5.86-3.73,4.86c-3.77,4.91-10.17,12.46-9.81,17.72,1.73,3.21-.08,6.42-3.14,7.84l-.22,27.53c9.72,4.92,18.93,10.22,27.83,16.22,1.94,1.31,3.86,2.75,4.32,5.29l-22.72-10.32-10.79-4.46c-10.11,4.45-19.44,9.31-29.17,14.51-2.66,1.42-6.43-.53-8.4-2.11l.96-6.32c.4-2.68,1.54-4.85,4.56-5.66l28.31-7.64c.99-8.24,1.07-16.08.63-24.34-.07-1.28-1.02-2.86-1.78-3.65-2.21-2.24-2.5-4.91-1.32-7.55.96-2.14,3.69-3.09,6.17-3.74l7.76-12.11,5.44-7.15c.32-.43,1.53-1.24,1.36-1.75-.49-1.5-6.08-5.93-7.63-6.02l-9.53-.55-11.72-.24c-16.98,18.04-24.41,43.32-29.31,67.28-1.01,4.92-2.93,9.96-1.39,14.91,3.2,10.31,9.22,24.93,3.79,33.03l-12.21,18.23c-5.16,7.7-10.61,14.79-16.99,21.49-2.66,2.79-3.29,5.91-1.18,9.35,1.52,2.47,3.68,5.08,6.43,6.52l10.5,5.47c2.86,1.49,5.67,3.64,5.95,7,.48,5.68-1.91,10.26-4.93,15.17,3.56.08,5.67-2.24,9.47.35l15.75,10.73c4.49,3.06,9.05,5.25,14.57,5.89l2.37,5.87-6.15.29-4.76,3.91c-5.05,4.14-10,7.6-16.31,9.75l1.57,1.87c4.15,4.93,9.28,7.35,15.66,7.61,3.37.13,5.76,3.11,7.97,5.38l12.32,12.71c.43.45,2.23.58,2.83.31l14.02-6.1-.07-41.53c0-1.21-1.3-3.04-2.07-3.83l-7.95-8.2c-1.89-1.94-4.56-4.75-4.72-7.52l-.51-8.68-.44-13.97c-2.89-5.66-7.25-10.06-11.28-14.74l-6.25-7.27c-1.94-2.26-1.84-4.68-1.54-7.41l1.34-12.32.86-5.03-7.89,3.65,5.36-8.85c.56-.92,2.11-1.87,1.56-3.17-1.53-3.57-2.32-6.9-2.86-10.68-1.89.03-4.92.26-6.23-.95ZM459.08,239.14c0-1.29-1.05-2.34-2.34-2.34s-2.34,1.05-2.34,2.34,1.05,2.34,2.34,2.34,2.34-1.05,2.34-2.34ZM218.89,239.51c0-1.28-1.04-2.32-2.32-2.32s-2.32,1.04-2.32,2.32,1.04,2.32,2.32,2.32,2.32-1.04,2.32-2.32ZM409.45,313.08c1.51-2.15,2.8-3.24,4.68-3.3,1.43-.05,3.21,1.03,4.76,2.07-.59-6.25-4.67-10.42-8.39-14.86l-8.54-10.17-7.28,7.07c3.68,6.13,5.9,12.36,7.51,19.29l7.25-.11ZM271.2,313.03c1.91-6.93,3.71-12.58,7.15-18.44-.5-1.23-1.56-2.48-2.56-3.36l-4.48-3.97-8.12,9.47c-3.91,4.57-7.99,8.94-8.81,15.03,1.82-1.31,3.59-2.03,5.22-1.76,1.89.32,3.16,1.35,4.53,3.14l7.06-.12ZM234.47,313.06c-9.85-4.64-15.61-11.55-25.12-12l-6.33-.3-2.27,5.24c9.78,1.14,18.47,3.69,27.39,6.82,2.78.98,5.18,1.6,8.24,2.05-.61-.86-1.26-1.51-1.91-1.82ZM445.82,312.49c9.02-3.03,17.49-5.41,26.64-6.52-.48-2.22-1.09-3.72-2.21-5.33-4.87.14-9.5.25-13.92,2.19l-12.38,7.52c-2.31,1.4-4.98,1.79-6.46,4.38l8.32-2.24ZM209,313.03c-.19,3-.25,6.18-1.29,8.63-.66.56-2.61-.92-2.66-1.76l-.37-6.28c-.03-.43.05-1.65-.38-1.7l-2.03-.25.73,6.74c.27,2.49,2.03,4.68,4.27,5.97,4.31-3.59,5.64-12.24,1.72-11.34ZM466.21,324.21c2.19-1.3,3.66-3.14,4.09-5.57l1.05-5.92c.09-.52-1.46-1.27-1.96-1.09-1.54.55.34,4.34-1.64,9.35-.17.42-1.42,1.09-1.68.79-1.43-1.72-1.35-5.3-1.38-8.63,0-.59-2.31-.43-2.34.19-.18,3.94.83,9.25,3.84,10.89ZM261.04,315.48c0-1.22-.99-2.21-2.21-2.21s-2.21.99-2.21,2.21.99,2.21,2.21,2.21,2.21-.99,2.21-2.21ZM416.87,315.44c0-1.23-1-2.23-2.23-2.23s-2.23,1-2.23,2.23,1,2.23,2.23,2.23,2.23-1,2.23-2.23ZM225.2,318.83c.09-.47.12-1.45-.19-1.53l-1.14-.3-7.67-2.55-1.04,2.54c-.71,3.13-2.02,5.29-3.82,7.97,5.39-1.07,9.34-3.56,13.86-6.14ZM462.07,324.9c-2.5-3.56-3.65-6.41-4.57-10.5l-10.1,3.39c4.77,3.66,9.14,5.67,14.67,7.11ZM229.77,367.68c-2.98,2.23-5.94,4.42-7.66,7.9-.33,1.06-.84,3.41-.84,4.57l.02,19.35c3.23,4.85,6.21,9.26,11.38,13.36l.05-32.68c0-1.55.71-3.19,1.87-4.12l8.87-7.2,17.68-13.75,8.12-6.49c1.01-.81,1.91-1.92,1.53-3.37-2.46-9.4-2.48-18.49-.39-28.02h-6.08c-1.08,2.28-2.74,3.47-4.82,3.63-2.24.18-3.95-.85-5.39-2.62-6.02.06-12.23-.6-18.11.86-3.59.89-6.7,3.65-9.86,5.43-6.74,3.78-13.39,6.11-21.17,6.74l-2.5,12-.12,10.74,16.33,19.68c1.86-2.54,3.27-4.95,5.49-6.61l22.28-16.65,7.11-5.46c-1.08-3.28.57-5.66,2.88-6.84s5.01-.36,6.63,1.52c1.74,2.02,1.71,5.04.07,7.14s-4.35,2.24-6.95,1.34l-11.01,7.99-15.43,11.56ZM421.35,346.2l26.84,20.05c2.85,2.13,4.64,4.1,6.31,7.68l4.3-5.23,12.34-14.71c.65-7.84-.34-15.44-2.76-22.66-5.03-.95-9.99-1.21-14.21-3.53l-15.5-8.51c-1.2-.66-3.87-1.06-5.3-1.06l-13.89-.06c-1.55,1.99-3.34,3.01-5.95,2.67-1.63-.21-3.12-1.65-4.65-3.35-1.47-.39-4.14-.32-5.77-.06,2.05,10.34,1.69,19.83-.93,29.62l7.05,5.78,22.2,17.23c3.47,2.69,6.58,5.4,9.41,8.66l-.05,34.26c1.64-1.05,2.53-2.18,3.76-3.58,2.65-3,5.9-6.09,7.63-9.81l-.04-19.66c0-3.51-1.35-6.69-4.24-8.88l-16.74-12.7-13.9-9.99c-2.29.4-5.27.72-6.97-1.39-1.28-1.59-1.72-4.22-.68-6.42,1.1-2.34,3.37-3.29,5.85-2.8,6.08,1.21,3.07,6.37,5.89,8.48ZM261.08,343.11c0-1.19-.97-2.16-2.16-2.16s-2.16.97-2.16,2.16.97,2.16,2.16,2.16,2.16-.97,2.16-2.16ZM416.67,343.01c.08-1.75-2.17-2.32-3.45-1.74-.68.31-1.21,2.24-.75,2.85.4.53,1.7,1.07,2.36,1.02s1.8-1.37,1.84-2.14ZM241.66,414.68l-.39-11.5c-.03-.83,1.55-2.29,2.3-2.66l14.41-7.18c2.95-1.47,5.01-4.78,7.17-7.22l8.25-9.33,7.5-9.1c-.32-1.13-1.45-2.36-2.41-2.49l-19.96,21.77c-2.34,2.46-5.38,3.95-8.41,5.55l-13.33,7.06.07,53.61.51,8.18c1.31-.06,3.19-.98,3.99-2.15l.17-33.78.15-10.75ZM431.99,446.45l-.22,12.67c1.3,1.05,2.89,1.85,4.46,2.27l.4-12.46.1-35.12-.55-14.29-15.88-8.39c-4.27-2.26-7.27-5.97-10.5-9.47l-8.39-9.09-7.02-7.58c-.85.7-1.59,1.42-1.7,2.01s.41,1.98.81,2.45l12.53,14.52,6.04,6.49c2.17,2.33,4.96,4.16,7.89,5.55l9.56,4.55c4.39,2.09,2.39,6.88,2.4,9.7l.07,25.43v10.76ZM252.69,407.83c3.73-1.62,7.89-2.64,10.93-5.32,4.11-3.61,7.05-8.21,10.57-12.37l9.64-11.39c1.9-2.24,1.95-4.77-.35-7.08l-16.48,18.26c-3.85,4.27-7.33,8.02-12.96,10.12-2.33.87-5.26,2.06-7.11,3.79-1.67,1.56-1.24,5.03-.79,6.82l6.54-2.83ZM427.28,410.79l-.08-6.9-9.13-4.43c-3.42-1.66-6.18-3.52-8.77-6.3l-7.94-8.54-11.44-13c-2.32,1.87-2.21,5.23-.18,7.64l14.62,17.36c1.72,2.04,3.09,4.65,5.34,6.14,3.04,2.01,6.52,3.22,9.83,4.66l7.74,3.37ZM228.28,472.72l18.62-8.46c2.04-.93,3.33-4.31,3.31-6.58l-.13-19.43-.04-8.14c0-1.88.82-3.78,1.65-5.37,2.1-4.02,6.22-5.05,10.21-2.84,4.43-1.29,9.15-3.34,13-6.07,1.79-2.29,3.83-5.43,4.7-8.1.71-2.16-.09-4.57,1.77-6.1,1.17-.96,3.26-1.65,5.22-2.1l4.86-10.12,2.05-4.81-5.38-4.64-4.38,5.76-14.94,18.06c-1.5,1.82-3.88,3.5-6.04,4.38l-10.72,4.41c-1.93.79-5.25,1.99-5.5,4.26l-.65,6-.08,39.23-7.15,4.8-.1-3.11-20.99,9.29-5.69,8.35c-.74,1.08-1.04,2.28-1.34,3.97l6.39-1.32c2.36-8.41,5.57-8.73,11.3-11.33ZM456.75,484.15c1.7.68,4.05,1.06,6.38.97-2.04-4.25-4.4-8.37-7.52-11.82l-20.73-9.38.22,2.99c-2.61-1.24-6.59-2.84-7.49-5.84-.68-3.59-.03-7.48-.04-11.09l-.02-21.55-.53-11.14c-.21-4.35-12.82-6.14-19.52-10.86-3.88-2.73-6.33-7.02-9.35-10.54l-7.89-9.2-5.35-6.79-5.03,4.96,6.58,14.61c2.36.25,4.25,1.09,5.5,2.35,1.73,1.76.85,3.76,1.55,5.79,3.22,9.41,9.15,10.96,17.72,14.78,3.18-2.63,6.86-1.89,9.54.92,1.2,1.26,2.4,3.13,2.4,5.11v18.34c0,6.02-2.18,15.64,5.24,18.86l19.19,8.31c5.71,2.48,6.55,4.11,9.15,10.23ZM284.42,403.36c-1.17.54-1.45,2.41-.88,3.38s2.31,1.31,3.29.72c.86-.52,1.26-2.49.81-3.41-.36-.74-2.31-1.1-3.22-.68ZM390.12,405.54c0-1.29-1.05-2.34-2.34-2.34s-2.34,1.05-2.34,2.34,1.05,2.34,2.34,2.34,2.34-1.05,2.34-2.34ZM193.2,421.46l-20.33-12.32c-1.89-1.15-3.84-1.73-5.93-2.18l-3.28-.71c-.8,1.46-.3,3.06.51,4.45,2.78,4.76,7.17,6.82,12.5,7.26,5.62.47,10.67,3.42,16.52,3.51ZM498.05,417.89c2.47-.3,4.29-.34,6.26-1.76,3.18-2.29,7.52-7.36,6.28-8.99-.19-.24-1.04-.51-1.39-.44l-5.25,1.17c-1.46.33-2.64,1.37-3.89,2.12l-19.61,11.68c6.32-.32,11.45-3.05,17.6-3.79ZM187.49,430.93l8.55-6.08-10.25-1.19c-4.25.26-8.25-.08-12.26-.87-4.65,1.72-6.5,6.88-4.61,11.23,1.29,2.35,4,4.19,6.84,3.02,3.98-1.64,8.19-3.6,11.73-6.12ZM497.17,437.01c2.08,1.04,4.65.42,5.95-.69,1.55-1.33,2.19-2.83,2.29-5.31s-1.82-7.83-5.12-7.62l-15.93,1-6.97.75,9.99,6.95,9.79,4.91ZM259.83,426.31c0-1.16-.94-2.1-2.1-2.1s-2.1.94-2.1,2.1.94,2.1,2.1,2.1,2.1-.94,2.1-2.1ZM417.87,426.4c0-1.16-.94-2.09-2.09-2.09s-2.09.94-2.09,2.09.94,2.09,2.09,2.09,2.09-.94,2.09-2.09ZM267.41,443.38c0-1.11-.9-2.02-2.02-2.02s-2.02.9-2.02,2.02.9,2.02,2.02,2.02,2.02-.9,2.02-2.02ZM406.5,441.98c-.83,1.18-.57,2.8.11,3.21.79.46,2.11.55,2.59.03.66-.71.68-2.37.21-3.01-.42-.58-2.51-.81-2.92-.23ZM209.16,478.84l4.28-7.16c-.98-1.57-2.1-2.58-3.44-3.73-4.24-3.64-7.76-7.83-11.38-12.08-1.7-1.99-4.37-1.94-6.86-2.24-2.92-.36-6.17-1.47-8.76-2.4l-1.65,10c-.61,3.69-1.25,7.51.55,10.93,5.06,9.56,13.6,12.85,24.31,13.12l2.95-6.43ZM467.28,485.12c9.37,1.02,18.06-2.97,23.35-10.54,2.66-3.49,2.72-7.53,2.07-11.83l-1.71-11.21-13.42,3.13c-2.42.56-4.4,3.51-5.85,5.39l-11.5,11.34,3.29,6.55,3.78,7.18Z"/>
    <path class="cls-1" d="M313.08,214.37l-.63,6.79,15.77-2.02,7.17-1.36-1.2,13.47-1.24,8.22c-.49,3.25-.76,6.02-.42,9.32l.76,7.42c.36,3.48.7,6.82.33,10.11-14.52.93-26.76,6.72-37.32,16.42l-6.55-6.06-19.93-19.5c-2.34-2.29-4.8-4.16-6.53-6.96v-36.82s-8.52-8.21-8.52-8.21l-9.99-9.47-6.41-6.16c-1.51-1.45-3.4-2.77-5.3-3.77l.24-12.64c.02-.9.33-2.46.68-3.21l17.13-12.89,38.43-28.73,17.94-.39,27.2-.28,1.69-.96,22.09.29,24.9.24,56.28,42.21.65,15.4-7.78,6.61-10.24,9.75-5.5,5.04-3.83,3.82c-.83.83-3.11,2.23-3.12,3.67l-.07,36.87-20.47,20.09-7.97,7.61-4.95,4.2c-10.39-9.98-22.84-15.28-37.3-16.28l2.18-22.56c-1.77-8.63-2.69-16.84-3.39-25.77l3.3.44,19.48,2.4-.33-21.02c-.05-3.01-.73-5.05-2.78-7.33l-20.92-23.19-4.91,5.98-4.56,4.95-13.93,15.61-.16,18.65ZM336.74,136.82c1.9,2.84,4.14,6.53,7.6,6.68l11.15.47,17.81.36,7.91.36,12.66,8.96c3.61,2.55,10.29.4,19.4,7.07l7.5,5.5c1.88,1.38,3.91,2.12,6.17,1.16l-25.16-19.15-16.52-12.52c-2.09-1.58-3.7-2.46-6.52-2.48l-36.31-.25-7.79.37-18.59.59-22.73.33c-2.41.03-4.03,1.31-5.86,2.69l-41.52,31.28c1.22.71,3.47.61,4.62-.19l10.35-7.2c3.4-2.36,6.66-3.58,10.76-4.38l5.83-1.14c3.6-.7,10.62-9.13,14.99-9.76s8.95-.51,13.5-.59l21.66-.36c2.08-.03,3.7-1.1,5.12-2.38l3.97-5.41ZM420.56,170.5l-4.98-3.64-8.15-5.23c-.36.64-.56,1.17-.34,1.42s1,.96,1.38,1.16c3.11,1.57,4.67,6.18,2.26,9.22-2.19,2.76-6.55,3.25-9.29.59-.43-.42-1.36-1-1.84-.91-.39.08-1.17.6-1.48.94l-6.28,6.71-12.63,12.82c-1.9,1.93-1.94,4.04-2,6.65-.23,9.99-.79,19.8.3,29.56,1.95,1.82,3.57,4.24,2.69,7.03-.7,2.23-2.3,4.1-4.74,4.38-2.57.3-5.12-.48-6.29-2.81-1.6-3.19-1.13-6.4,2.17-8.25,1-.56,1.47-1.61,1.39-2.88l-.65-10.55v-8.53s.33-12.48.33-12.48c.03-1.06,1.46-2.75,2.24-3.57l10.86-11.19,11.89-12.1,2.51-.97c.59-2.06,2.05-3.35,4.09-4.09,1.14-5.37-7.26-3.15-11.83-5.53-6.17-3.21-9.89-9.43-15.86-9.57l-9.28-.21-21.09-.13c4.07,5.29,5.52,5.66,10.61,6.15l21.41,2.05,14.23,10c-8.19,7.12-15.37,14.16-22.43,21.67-.86,1.21-2.7,2.82-2.79,4.14l-.88,12.39-.05,8.58.72,11.38c.02.37.07,1.74-.24,1.63l-1.41-.51-3.75-1.24.24,14.38-6.56,17.55c-1.08,2.9.31,4.86,2.96,6.1l5.25,2.46,7.02-7.26,12.15-11.94,4.33-5.08.26-13.37.43-19.12.22-4.67c.05-1.17.7-2.97,1.61-3.84l10.49-10.03,6.01-5.53,7.5-6.97,7.29-6.72ZM346.56,171.65l9.21.2,7.37.59c2.29.18,4.09.3,6.27-.59,1.31-.54,3.21-.02,3.92,1.05.76,1.14.63,2.89-.23,3.91-.64.75-2.75,1.31-3.67.82-2.63-1.39-4.79-1.44-7.66-1.57l-8.73-.41,3.35,3.96,6.78,8.08c3.38-4.25,6.45-7.62,10.95-9.58l10-10.05-6.43-3.7-19.91-1.66-5.01-.33c-2.95-.19-4.47-1.37-6.3-3.44l-4.67-5.27-5.25-5.29-12.89,14.33-23.37,1.92c-4.48.37-9.77,1.97-10.62,4.29-.16.44,1.12,1.09,1.47,1.44l7.46,7.49c1.24,1.25,2.67,1.92,4.16,2.96,2.66,1.85,5.01,4.75,7.42,7.25l6.35-7.56,3.65-4.29-15.02,1.07c-1.31,1.98-3.45,1.57-4.68.4-1.64-1.03-1.4-3.21-.4-4.44,1.44-1.76,3.22-.86,5.04-.37,2.63.72,6.01.21,8.82.03l12.73-.82,4.86-5.61,5.18-6.62,9.84,11.79ZM276.5,192.99l6.2,5.77c2.08,1.93,3.01,3.99,3.09,6.95l.25,9.72.36,24.78c.26,1.64,2.31,3.65,3.51,4.85l17.74,17.79,2.21,2.39,6.98-3.34c2.53-1.21,2.1-3.44,1.31-5.55l-6.24-16.82c-.71-1.91-.35-3.92-.3-5.83l.24-9.21-5.57,2.78c.89-9.31,1.55-17.83.77-26.75l-.59-6.68c-.19-2.12-2.55-4.55-4.14-6.14l-15.73-15.71-5.32-4.86,13.09-9.4c1.17-.84,2.91-.88,4.43-1l16.69-1.27c2.54-.19,5.79-.06,7.48-2.01l3.7-4.29-25.41.17-6.33.64c-4.47.45-11.44,8.94-14.31,9.43l-9.1,1.56c-1.35.23-2.95,2.29-1.85,3.19,1.71,1.41,2.83,2.5,3.91,4.41l2.39,1.02,17.92,18.06,4.58,4.97c1.32,1.43,2.75,3.08,2.74,5.22l-.06,21.9-.55,7.43c-.05.69-.44,2.43.13,2.79l2.14,1.34c3.06,1.92,2.69,6.89.08,9.16s-6.83,1.43-8.99-1.34c-2.7-3.46.05-6.47,2.05-8.97.74-10.19.27-20.19.23-30.36,0-1.19-.5-3.49-1.08-4.38l-15.31-15.63-6.54-6.9c-1.32,2.65-2.96,3.47-5.53,3.51-3.17.05-5.79-2.02-6.34-5.02-1.1-5.98,7.04-7.21,4.05-9.13l-12.58,8.88,4.69,4.36,9.07,8.4,9.85,9.16ZM407.89,169.73c0-1.25-1.01-2.26-2.26-2.26s-2.26,1.01-2.26,2.26,1.01,2.26,2.26,2.26,2.26-1.01,2.26-2.26ZM267.08,168.3c-1.58.79-2.06,2.12-1.28,3.16.63.84,2.11,1.33,2.85.93.95-.52,1.76-1.98,1.38-2.7-.48-.9-2.18-1.77-2.95-1.39ZM375.79,273.4l4.31-3.9,15.36-15.12,7.26-7.35.32-7.06.02-17.25c0-4.55-.42-8.74.44-13.2l11.04-11.07,10.7-10.25,8.05-7.44-.1-7.65c-.02-1.38-2.56-3-3.68-3.24l-3.99,4.09-9.24,8.76-10.79,10.22-11.63,11.46-.34,12.63-.44,21.95-.32,4.64-7.37,7.71-7.38,6.93-1.55-2.11-7.85,8.05,7.19,9.22ZM297.26,273.34l3.36-3.78,3.89-5.1-7.52-8.09-1.93,2.27-11.92-11.85c-.91-.9-2.27-2.51-2.85-3.59l-.27-23.77-.39-14.07-15.83-15.66-8.55-8-11.43-11.32-3.55,2.46-.07,6.95c-.02,1.87,1.53,3,2.83,4.16l4.77,4.27,11.96,11.47,8.64,8.42c1.37,1.33,1.96,3.63,1.96,5.57l-.09,32.87c1.69,2.36,3.36,4.37,5.42,6.23l2.64,2.39,11.92,11.53,7.02,6.65ZM323.95,260.21c.21.55,1.32,1.34,1.77,1.53s1.55-.23,2-.63l-3.49-15.76-3.17-22.57-4.38.61.12,13.89c.03,3,.7,6.29,1.78,9.08l5.36,13.86ZM349.19,260.03c2.73-6.7,6.13-13.27,7.25-20.53.86-5.57.06-10.88.3-16.62l-4.72-.1-1.05,9.5c-.71,6.39-2.04,12.49-3.29,18.79l-2.1,10.58c1.51.27,3.1-.35,3.62-1.62ZM374.98,237.24c1.71-.43,1.99-2.18,1.29-3.25-.53-.81-1.81-1.37-3-.82-.92.43-1.53,1.88-1.31,2.63.28.96,1.71,1.77,3.02,1.45ZM301.27,235.65c0-1.31-1.06-2.37-2.37-2.37s-2.37,1.06-2.37,2.37,1.06,2.37,2.37,2.37,2.37-1.06,2.37-2.37Z"/>
    <path class="cls-1" d="M337.81,597.39l6.56,12.05c2.91.2,5.08,2.31,4.79,5.24-.18,1.76-1.86,3.22-3.33,3.42-1.67.23-3.84-.62-4.5-1.76-.98-1.71-.7-3.71.39-5.51l-4.33-7.99c-.1-.19-.97-.72-1.17-.79l-3.6,6.49c-.87,1.56-.79,2.76-.19,4.52.93,2.74-1.87,5.09-4.31,4.92-2.7-.18-4.89-2.67-4.01-5.47.65-2.05,3.22-2.86,4.87-3.58l6.34-11.32v-121.3c-2.18,2.08-3.09,3.99-4.46,6.18l.17,33.03.02,59.38-.47,17.22-2.71,9.95c-2.4.37-4.43.67-6.48.5l-5.17-.43c1.09-6.89,3.47-13.16,5.8-19.67l4.47-12.47c1.3-3.62-.03-8.35.32-12.29l-4.36-5.6c-.29.36-.72,1.8-.66,2.48.39,4.31-.5,7.74-1.93,11.58-.54,1.44-.96,2.54-1.88,3.74l.29-5.21.09-27.92-1.47-2.26-.09-39.24,6.89-9.67,11.08-14.72.13-26.16-3.54-5.71-.09,30.72c0,1.68-1.92,4.17-2.92,5.43l-10.48,13.16c-.48.6-.57,2.61-2.22,1.34l11.62-16c1.18-1.63,2.47-3.82,2.47-6.01l-.04-59.29c-2.56,4.88-4.27,9.21-5.67,13.99-1.55,5.27-.4,10.86-.34,16.31l.22,23.17c2.29,1.58,3.9,3.49,3.47,6.12-.37,2.29-2.36,4.65-5.02,4.73-2.94.08-4.49-1.81-5.35-3.96-1.06-2.66,1.04-4.87,2.64-6.64l.04-17.39c0-2.27-.41-4.48-.99-7.11l-5.77,14.83.16,12.01.11,20.79-1.39,6.44.23,13.36.48,17.46.53,8.92.19,10.6-8.05-10.47v-49.25s3.62-4.74,3.62-4.74l-.02-15.16-8.69-8.63c2.72-2.89,6.77-4.81,8.35-8.3l12.01-26.54,5.37-12.18c1.23-2.79,1.34-5.04,1.18-8.14l-.29-5.57,6.62.82v40.32c.01,1.55.45,3.4,1.86,4.13l.04-44.18c.51-.42,2.08-.41,2.61.01l.05,44.16c1.45-.72,1.84-2.58,1.84-4.11l-.02-40.25,7.03-.93-.54,6.15c-.35,4.04.73,6.81,2.33,10.33l16.87,37.1c1.46,3.21,5.09,4.62,7.67,7.06l-8.1,8.32c-.96.99-.71,4.3-.65,5.67l.43,10.05,3.47,4.64.02,48.32c-.49,1.86-2.25,4.07-3.42,5.45l-5,5.9.92-16.33.39-7.98.21-29.44c-1.65-3.09-1.92-6.31-1.13-9.68l.25-17.4c.05-3.73.5-7.32-.81-10.8l-3.94-10.51c-.11-.29-.55-.99-.72-1.22-.22-.31-1.06.74-1.2,1.1l-.05,22.83c2.58,1.61,3.27,4.44,2.14,6.97-.99,2.21-3.7,3.78-6.41,2.93-2.21-.69-3.62-2.95-3.64-5-.02-2.33,1.37-4.19,3.39-5.45l.32-19.01c.11-6.22.82-12.52-.07-18.67-.82-5.69-3.31-10.87-6.07-16.44l-.04,59.75c0,1.19.79,3.64,1.53,4.62l11.05,14.77c1.06,1.42,1.58,2.85,1.44,4.99l-1.02-1.92-11.75-15.23-2.82-4.69-.08-30.36c-1.63,1.9-2.46,3.18-3.52,4.9l.11,25.98,7.25,9.73,11.19,15.35-.32,9.38-.13,29.45-.99,2.15-.18,17.39-.06,5.23.02,9.89c-3.55-5.08-3.85-11.09-3.99-17.55l-4.72,6.04c.16,3.58-.99,7.96.23,11.31l5.39,14.9c2.2,6.09,3.98,11.59,5.08,18.47l-8.76.32c-2.33.09-3.16-1.45-3.67-3.5l-2.27-9.2-.02-107.8c-1.3-2.17-2.37-3.89-4.49-5.92l-.03,121.02ZM324.36,467.23c0-1.14-.93-2.07-2.07-2.07s-2.07.93-2.07,2.07.93,2.07,2.07,2.07,2.07-.93,2.07-2.07ZM353.11,467.29c0-1.15-.93-2.08-2.08-2.08s-2.08.93-2.08,2.08.93,2.08,2.08,2.08,2.08-.93,2.08-2.08ZM322.13,534.41l.2,11.71,4.45,5.45.04-64.11-6.08,8.42.16,30.28.26,4.6.97,3.65ZM350.84,534.2l1.4-1.6.15-36.66-6.09-8.5.02,64.41,4.49-5.21.04-12.43Z"/>
    <path class="cls-1" d="M336.29,117.42l-16.24.57-24.8.25c-1.28.01-2.69.47-3.68,1.25l-19.41,15.14-39.02,29.87c-2.12,1.62-4.15,3.51-5.44,5.62,1.25,1.51,2.28,3.22,2.17,5l-.43,7.11-.22,7.33c3.06.94,4.89,2.3,7.04,4.18l3.99,3.5,7.06,6.99,7.9,7.61c1.45,1.4,3.4,3.44,4.08,5.38l.04,35.74,13.98,13.75,19.43,19.26c-.1,1.51-1.49,2.8-2.97,3.45l-17.45-17.23-13.24-12.75c-1.75-1.68-4.35-3.09-4.38-5.65l-.1-10.08.16-23.04c.01-1.53-.83-3.38-1.94-4.55-7.11-7.49-14.58-14.36-22.51-20.94l-5.97-.1-.34-6.6-.21-20.32c-.02-1.78,1.85-3.6,3.31-4.72l42.79-33.1,12.76-9.8c2.95-2.27,5.86-5.06,9.17-6.76l10.7-.35,32.67-.28,2.14-.97,12.69.28,29.29.18c1.88.01,3.59.89,5,2l12.93,10.18,45.66,35.19c2.65,2.05,4.82,4.23,6.95,6.77l-.2,27.62-6.43.33-6.64,5.76-6.26,5.76c-4.15,3.82-8.07,7.5-11.51,11.99v36.67s-8.55,8.3-8.55,8.3l-11.01,10.47-15.79,15.59c-1.04-.52-2.22-1.71-2.99-3.01l4.12-4.74,13.44-13.07,15.69-15.4.25-7.25-.04-4.14v-19.41s.3-4.66.3-4.66c.09-1.4,1.05-3.23,2.13-4.29l17.86-17.62c2.27-2.24,5.01-4.26,7.69-5.81l1.83-.52c1.4-.4-.76-11.68.24-17.81l1.59-2.84-6.96-6.33-21.25-16.26-34.43-26.49c-1.39-1.07-2.75-2.4-4.71-2.39l-41.92.2Z"/>
    <path class="cls-1" d="M354.45,388.55c-23.22,8.94-48.45-1.25-63.5-21-17.4-22.82-16.83-54.69,1.02-77.27,7.04-8.91,16.67-15.61,27.47-19.28,30.68-10.43,62.44,8.76,72.29,38.57,10.66,32.29-5.57,66.77-37.28,78.98ZM376.38,370.92c21.37-22.7,21.9-57.84,1.28-81.21l-3.63-3.77c-21.28-19.85-50.83-20.63-72.77-1.72-12.42,10.7-19.76,26.03-20.55,42.42-.8,16.71,4.8,31.98,16.03,44.14,9.44,10.22,21.92,17.1,36.02,18.35,16.71,1.48,32.41-6.29,43.62-18.21Z"/>
    <path class="cls-1" d="M339.63,214.59c-1.92-.26-4.06-.13-5.79.14l-17.41,2.7c-.48-5.26,1.19-9.99,4.18-14.41l10.47-15.46,5.63-8.73,7.28,11.2,8.87,13.06c2.83,4.17,4.3,8.57,4.09,13.84l-17.33-2.33ZM338.32,198.69l9.72,13.76,6.04.84-5.55-7.86-11.3-15.71c-.09-.22-.92-.79-1.07-.53l-.51.89-9.15,13.33-7.14,9.97c2.24-.02,4.08-.32,5.75-.76l3.76-5.35,8.16-11.13,1.29,2.56Z"/>
    <path class="cls-1" d="M310.92,601.72c2.23-11.48,7.11-21.26,10.5-31.82l2.2-8.21c.26,2.49.46,5.59-.62,8.26-4.27,10.54-6.86,21.52-12.09,31.78Z"/>
    <path class="cls-1" d="M362.65,600.81l-.37.76c-.11.22-.61-.22-.91-.52l-11.14-30.83c-.85-2.97-1.25-5.78-.81-8.57l3,10.47,10.23,28.7Z"/>
    <path class="cls-1" d="M517.89,374.33c-.83,3.61-4.64,4.69-8.17,4.36-2.73-.26-4.75,2.27-6.56,3.83-2,1.72-4.49.87-6.91.86-4.02-.02-8.89-.91-10.34-5.28-2.96-8.87,4.44-18.55,7.43-17.19.64.29,1.26,2.04.89,2.7-2.97,5.19-6.41,12.73-1.85,14.98,3.5,1.73,7.4.43,10.29-1.97,4.26-3.51,9.43-4.67,15.23-2.28Z"/>
    <path class="cls-1" d="M160.25,378.67c-1.8-.61-3.71-2.47-4.65-4.41,6.13-2.99,11.05-.96,16.37,2.76,1.77,1.24,4.09,2.08,6.26,2.23,2.97.22,5.31-2.19,5.08-5.04-.64-8.07-6.16-11.92-3.06-13.34.99-.46,2.11.16,2.9.85,3.81,3.38,5.42,7.47,5.28,12.51-.09,3.1-.76,5.85-3.78,7.45-4.03,2.14-13.01,2.3-14.4.74-2.8-3.14-5.83-4.94-10-3.75Z"/>
    <path class="cls-1" d="M373.28,371.23c-20.9,20.47-49.48,21.69-71.13,2.14-11.71-10.57-18.79-24.91-19.45-40.6-.75-17.76,5.66-34.04,18.69-46.01,14.45-13.26,34.2-18.02,52.74-10.96,21.35,8.13,35.17,27.83,36.49,50.58.97,16.8-5.27,33.03-17.35,44.86ZM380.78,341.74c4.14-16.27-.53-33.38-11.75-45.8-4.72-5.22-10.5-9.16-16.88-12.02-10.86-4.87-22.55-4.14-33.11,1.04-17.13,8.4-27.64,25.74-27.8,44.52-.16,18.79,10.14,35.9,26.97,44.84,6.77,3.6,14.25,5.61,22.04,4.72,19.25-2.21,35.7-18.29,40.54-37.3Z"/>
    <path class="cls-1" d="M336.19,373.43c-9.84-.29-18.49-4.84-25.32-11.27-9.89-9.32-15.16-22.71-13.87-36.17,1.49-15.58,10.51-29.14,24.67-35.89,9.88-4.71,20.71-4.82,30.59.2,13.62,6.93,22.81,20.52,24.02,35.83,1.26,15.92-5.56,30.54-18.37,39.74-6.36,4.57-13.5,7.81-21.73,7.56ZM350.57,354.69c9.61-6.92,14.22-18.37,12.15-30.02-1.64-9.23-7.76-17.1-16.08-21.25-9.24-4.6-19.53-2.03-26.8,4.84-6.84,6.46-10.4,14.86-9.57,24.56s6.22,18.15,14.29,22.99,18.01,4.65,26.02-1.12Z"/>
    <path class="cls-1" d="M339.61,354.61c-7.48,1.17-13.74-1.69-18.53-6.77-7.82-8.29-9.56-21.01-3.53-30.79,4.32-7.02,11.35-11.81,19.74-11.65,5.82.11,11.58,3.17,15.39,7.27,4.22,4.54,6.3,9.96,6.68,16.03.77,12.26-7.2,23.95-19.75,25.92ZM349.46,347.59c10.68-9.6,10.34-26.03-.35-35.19-6.67-5.72-15.75-6.44-23.03-1.32-2.71,1.9-5.25,4.47-6.92,7.48-5.75,10.38-2.94,23.72,6.63,30.48,7.52,5.31,16.75,4.77,23.67-1.44Z"/>
    <path class="cls-1" d="M347.66,333.26c-1.33,5.37-5.23,9-10.66,9.13-6.65.16-11.72-5.6-11.81-11.99s4.87-12.53,11.56-12.45c7.77.09,12.75,7.86,10.91,15.3Z"/>
  </g>
</svg>